<svg width="150" height="150" viewBox="0 0 150 150" fill="none" xmlns="http://www.w3.org/2000/svg">
<rect width="150" height="150" fill="#E6F9D3"/>
<path d="M13.9707 40V14.4062H21.1953C23.4219 14.4062 25.3906 14.8984 27.1016 15.8828C28.8125 16.8672 30.1309 18.2676 31.0566 20.084C31.9941 21.9004 32.4688 23.9863 32.4805 26.3418V27.9766C32.4805 30.3906 32.0117 32.5059 31.0742 34.3223C30.1484 36.1387 28.8184 37.5332 27.084 38.5059C25.3613 39.4785 23.3516 39.9766 21.0547 40H13.9707ZM17.3457 17.1836V37.2402H20.8965C23.498 37.2402 25.5195 36.4316 26.9609 34.8145C28.4141 33.1973 29.1406 30.8945 29.1406 27.9062V26.4121C29.1406 23.5059 28.4551 21.25 27.084 19.6445C25.7246 18.0273 23.791 17.207 21.2832 17.1836H17.3457ZM41.2168 40H37.8418V14.4062H41.2168V40ZM51.7637 14.4062L60.1309 35.2891L68.498 14.4062H72.875V40H69.5V30.0332L69.8164 19.2754L61.4141 40H58.8301L50.4453 19.3281L50.7793 30.0332V40H47.4043V14.4062H51.7637ZM82.209 29.9805V40H78.834V14.4062H88.2734C91.0742 14.4062 93.2656 15.1211 94.8477 16.5508C96.4414 17.9805 97.2383 19.873 97.2383 22.2285C97.2383 24.7129 96.459 26.6289 94.9004 27.9766C93.3535 29.3125 91.1328 29.9805 88.2383 29.9805H82.209ZM82.209 27.2207H88.2734C90.0781 27.2207 91.4609 26.7988 92.4219 25.9551C93.3828 25.0996 93.8633 23.8691 93.8633 22.2637C93.8633 20.7402 93.3828 19.5215 92.4219 18.6074C91.4609 17.6934 90.1426 17.2188 88.4668 17.1836H82.209V27.2207ZM104.938 37.2402H117.066V40H101.545V14.4062H104.938V37.2402ZM135.383 28.1699H124.291V37.2402H137.176V40H120.916V14.4062H137V17.1836H124.291V25.4102H135.383V28.1699Z" fill="#1C2E8D"/>
<path d="M28.4375 63.1699H17.3457V72.2402H30.2305V75H13.9707V49.4062H30.0547V52.1836H17.3457V60.4102H28.4375V63.1699Z" fill="#1C2E8D"/>
<path d="M20.5117 94.5918C17.6172 93.7598 15.5078 92.7402 14.1836 91.5332C12.8711 90.3145 12.2148 88.8145 12.2148 87.0332C12.2148 85.0176 13.0176 83.3535 14.623 82.041C16.2402 80.7168 18.3379 80.0547 20.916 80.0547C22.6738 80.0547 24.2383 80.3945 25.6094 81.0742C26.9922 81.7539 28.0586 82.6914 28.8086 83.8867C29.5703 85.082 29.9512 86.3887 29.9512 87.8066H26.5586C26.5586 86.2598 26.0664 85.0469 25.082 84.168C24.0977 83.2773 22.709 82.832 20.916 82.832C19.252 82.832 17.9512 83.2012 17.0137 83.9395C16.0879 84.666 15.625 85.6797 15.625 86.9805C15.625 88.0234 16.0645 88.9082 16.9434 89.6348C17.834 90.3496 19.3398 91.0059 21.4609 91.6035C23.5938 92.2012 25.2578 92.8633 26.4531 93.5898C27.6602 94.3047 28.5508 95.1426 29.125 96.1035C29.7109 97.0645 30.0039 98.1953 30.0039 99.4961C30.0039 101.57 29.1953 103.234 27.5781 104.488C25.9609 105.73 23.7988 106.352 21.0918 106.352C19.334 106.352 17.6934 106.018 16.1699 105.35C14.6465 104.67 13.4688 103.744 12.6367 102.572C11.8164 101.4 11.4062 100.07 11.4062 98.582H14.7988C14.7988 100.129 15.3672 101.354 16.5039 102.256C17.6523 103.146 19.1816 103.592 21.0918 103.592C22.873 103.592 24.2383 103.229 25.1875 102.502C26.1367 101.775 26.6113 100.785 26.6113 99.5312C26.6113 98.2773 26.1719 97.3105 25.293 96.6309C24.4141 95.9395 22.8203 95.2598 20.5117 94.5918Z" fill="#1C2E8D"/>
<path d="M19.4746 127.1L16.3457 130.352V139H12.9707V113.406H16.3457V126.062L27.7188 113.406H31.7969L21.7246 124.709L32.5879 139H28.5449L19.4746 127.1Z" fill="#1C2E8D"/>
</svg>
